<?xml version="1.0" standalone="no"?>
<svg viewBox="0 0 200 200" xmlns="http://www.w3.org/2000/svg">
  <path fill="#FF0066" d="M42.8,-71.7C57,-66,70.9,-57.5,80,-45.1C89,-32.7,93.2,-16.3,90.9,-1.3C88.6,13.7,79.8,27.4,71.8,41.5C63.7,55.6,56.3,70.1,44.4,78.3C32.6,86.6,16.3,88.5,1.2,86.5C-14,84.5,-28,78.6,-40.1,70.5C-52.2,62.5,-62.5,52.3,-70.3,40.1C-78.1,28,-83.4,14,-85.3,-1.1C-87.2,-16.2,-85.7,-32.4,-78.2,-45C-70.7,-57.6,-57.2,-66.6,-43.1,-72.4C-29.1,-78.2,-14.5,-80.9,-0.1,-80.7C14.3,-80.5,28.7,-77.5,42.8,-71.7Z" transform="translate(100 100)" />
</svg>
