<?xml version="1.0" standalone="no"?><svg xmlns="http://www.w3.org/2000/svg" viewBox="0 0 1440 320"><path fill="#121650" fill-opacity="0.75" d="M0,64L36.9,64L73.8,128L110.8,288L147.7,160L184.6,128L221.5,224L258.5,288L295.4,32L332.3,224L369.2,128L406.2,224L443.1,96L480,32L516.9,160L553.8,32L590.8,128L627.7,96L664.6,96L701.5,0L738.5,160L775.4,288L812.3,128L849.2,192L886.2,96L923.1,128L960,64L996.9,256L1033.8,128L1070.8,256L1107.7,96L1144.6,0L1181.5,320L1218.5,64L1255.4,288L1292.3,160L1329.2,64L1366.2,32L1403.1,320L1440,160L1440,320L1403.1,320L1366.2,320L1329.2,320L1292.3,320L1255.4,320L1218.5,320L1181.5,320L1144.6,320L1107.7,320L1070.8,320L1033.8,320L996.9,320L960,320L923.1,320L886.2,320L849.2,320L812.3,320L775.4,320L738.5,320L701.5,320L664.6,320L627.7,320L590.8,320L553.8,320L516.9,320L480,320L443.1,320L406.2,320L369.2,320L332.3,320L295.4,320L258.5,320L221.5,320L184.6,320L147.7,320L110.8,320L73.8,320L36.9,320L0,320Z"></path></svg>